<mxfile host="app.diagrams.net" modified="2024-03-19T15:25:46.382Z" agent="Mozilla/5.0 (Windows NT 10.0; Win64; x64) AppleWebKit/537.36 (KHTML, like Gecko) Chrome/122.0.0.0 Safari/537.36" etag="meNjWOzLG7rhzNOTdON1" version="24.0.7" type="onedrive">
  <diagram name="Structure chart" id="7xQ5zlywPbGbeEACYbmI">
    <mxGraphModel grid="0" page="0" gridSize="10" guides="1" tooltips="1" connect="1" arrows="1" fold="1" pageScale="1" pageWidth="827" pageHeight="1169" math="0" shadow="0">
      <root>
        <mxCell id="0" />
        <mxCell id="1" parent="0" />
        <mxCell id="E5LTaA5tbhpfX6t5myje-1" value="Home page" style="rounded=0;whiteSpace=wrap;html=1;" vertex="1" parent="1">
          <mxGeometry x="107" y="47" width="120" height="60" as="geometry" />
        </mxCell>
        <mxCell id="E5LTaA5tbhpfX6t5myje-2" value="Navbar" style="rounded=0;whiteSpace=wrap;html=1;" vertex="1" parent="1">
          <mxGeometry x="107" y="157" width="120" height="60" as="geometry" />
        </mxCell>
        <mxCell id="E5LTaA5tbhpfX6t5myje-3" value="" style="endArrow=classic;startArrow=classic;html=1;rounded=0;fontSize=12;startSize=8;endSize=8;curved=1;exitX=0.5;exitY=0;exitDx=0;exitDy=0;entryX=0.5;entryY=1;entryDx=0;entryDy=0;" edge="1" parent="1" source="E5LTaA5tbhpfX6t5myje-2" target="E5LTaA5tbhpfX6t5myje-1">
          <mxGeometry width="50" height="50" relative="1" as="geometry">
            <mxPoint x="121" y="159" as="sourcePoint" />
            <mxPoint x="171" y="109" as="targetPoint" />
          </mxGeometry>
        </mxCell>
        <mxCell id="E5LTaA5tbhpfX6t5myje-4" value="Projects" style="rounded=0;whiteSpace=wrap;html=1;" vertex="1" parent="1">
          <mxGeometry x="-139" y="257" width="120" height="60" as="geometry" />
        </mxCell>
        <mxCell id="E5LTaA5tbhpfX6t5myje-5" value="Achievements" style="rounded=0;whiteSpace=wrap;html=1;" vertex="1" parent="1">
          <mxGeometry x="35" y="387" width="120" height="60" as="geometry" />
        </mxCell>
        <mxCell id="E5LTaA5tbhpfX6t5myje-6" value="CV" style="rounded=0;whiteSpace=wrap;html=1;" vertex="1" parent="1">
          <mxGeometry x="231" y="387" width="120" height="60" as="geometry" />
        </mxCell>
        <mxCell id="E5LTaA5tbhpfX6t5myje-7" value="Contact me" style="rounded=0;whiteSpace=wrap;html=1;" vertex="1" parent="1">
          <mxGeometry x="401" y="253" width="120" height="60" as="geometry" />
        </mxCell>
        <mxCell id="E5LTaA5tbhpfX6t5myje-8" value="" style="endArrow=classic;startArrow=classic;html=1;rounded=0;fontSize=12;startSize=8;endSize=8;curved=1;exitX=0.5;exitY=0;exitDx=0;exitDy=0;entryX=0;entryY=1;entryDx=0;entryDy=0;" edge="1" parent="1" source="E5LTaA5tbhpfX6t5myje-4" target="E5LTaA5tbhpfX6t5myje-2">
          <mxGeometry width="50" height="50" relative="1" as="geometry">
            <mxPoint x="117" y="266" as="sourcePoint" />
            <mxPoint x="85" y="257" as="targetPoint" />
          </mxGeometry>
        </mxCell>
        <mxCell id="E5LTaA5tbhpfX6t5myje-9" value="" style="endArrow=classic;startArrow=classic;html=1;rounded=0;fontSize=12;startSize=8;endSize=8;curved=1;exitX=0.5;exitY=0;exitDx=0;exitDy=0;entryX=0.25;entryY=1;entryDx=0;entryDy=0;" edge="1" parent="1" source="E5LTaA5tbhpfX6t5myje-5" target="E5LTaA5tbhpfX6t5myje-2">
          <mxGeometry width="50" height="50" relative="1" as="geometry">
            <mxPoint x="124" y="253" as="sourcePoint" />
            <mxPoint x="147" y="263" as="targetPoint" />
          </mxGeometry>
        </mxCell>
        <mxCell id="E5LTaA5tbhpfX6t5myje-10" value="" style="endArrow=classic;startArrow=classic;html=1;rounded=0;fontSize=12;startSize=8;endSize=8;curved=1;exitX=0.5;exitY=0;exitDx=0;exitDy=0;entryX=0.75;entryY=1;entryDx=0;entryDy=0;" edge="1" parent="1" source="E5LTaA5tbhpfX6t5myje-6" target="E5LTaA5tbhpfX6t5myje-2">
          <mxGeometry width="50" height="50" relative="1" as="geometry">
            <mxPoint x="113" y="264" as="sourcePoint" />
            <mxPoint x="201" y="266" as="targetPoint" />
          </mxGeometry>
        </mxCell>
        <mxCell id="E5LTaA5tbhpfX6t5myje-11" value="" style="endArrow=classic;startArrow=classic;html=1;rounded=0;fontSize=12;startSize=8;endSize=8;curved=1;exitX=0.5;exitY=0;exitDx=0;exitDy=0;entryX=1;entryY=1;entryDx=0;entryDy=0;" edge="1" parent="1" source="E5LTaA5tbhpfX6t5myje-7" target="E5LTaA5tbhpfX6t5myje-2">
          <mxGeometry width="50" height="50" relative="1" as="geometry">
            <mxPoint x="120" y="266" as="sourcePoint" />
            <mxPoint x="170" y="216" as="targetPoint" />
          </mxGeometry>
        </mxCell>
        <mxCell id="E5LTaA5tbhpfX6t5myje-12" value="Others opinions" style="rounded=0;whiteSpace=wrap;html=1;" vertex="1" parent="1">
          <mxGeometry x="107" y="-63" width="120" height="60" as="geometry" />
        </mxCell>
        <mxCell id="E5LTaA5tbhpfX6t5myje-13" value="" style="endArrow=classic;html=1;rounded=0;fontSize=12;startSize=8;endSize=8;curved=1;entryX=0.5;entryY=1;entryDx=0;entryDy=0;exitX=0.5;exitY=0;exitDx=0;exitDy=0;" edge="1" parent="1" source="E5LTaA5tbhpfX6t5myje-1" target="E5LTaA5tbhpfX6t5myje-12">
          <mxGeometry width="50" height="50" relative="1" as="geometry">
            <mxPoint x="161" y="48" as="sourcePoint" />
            <mxPoint x="211" y="-2" as="targetPoint" />
          </mxGeometry>
        </mxCell>
        <mxCell id="E5LTaA5tbhpfX6t5myje-14" value="" style="endArrow=none;html=1;rounded=0;fontSize=12;startSize=8;endSize=8;curved=1;" edge="1" parent="1">
          <mxGeometry width="50" height="50" relative="1" as="geometry">
            <mxPoint x="57" y="189" as="sourcePoint" />
            <mxPoint x="60" y="-35" as="targetPoint" />
          </mxGeometry>
        </mxCell>
        <mxCell id="E5LTaA5tbhpfX6t5myje-15" value="" style="endArrow=none;html=1;rounded=0;fontSize=12;startSize=8;endSize=8;curved=1;entryX=0;entryY=0.5;entryDx=0;entryDy=0;" edge="1" parent="1" target="E5LTaA5tbhpfX6t5myje-12">
          <mxGeometry width="50" height="50" relative="1" as="geometry">
            <mxPoint x="57" y="-33" as="sourcePoint" />
            <mxPoint x="61" y="-42" as="targetPoint" />
          </mxGeometry>
        </mxCell>
        <mxCell id="E5LTaA5tbhpfX6t5myje-16" value="" style="endArrow=classic;html=1;rounded=0;fontSize=12;startSize=8;endSize=8;curved=1;entryX=0;entryY=0.5;entryDx=0;entryDy=0;" edge="1" parent="1" target="E5LTaA5tbhpfX6t5myje-2">
          <mxGeometry width="50" height="50" relative="1" as="geometry">
            <mxPoint x="56" y="190" as="sourcePoint" />
            <mxPoint x="-40" y="160" as="targetPoint" />
          </mxGeometry>
        </mxCell>
        <mxCell id="E5LTaA5tbhpfX6t5myje-17" value="Core skills" style="rounded=0;whiteSpace=wrap;html=1;" vertex="1" parent="1">
          <mxGeometry x="449" y="387" width="120" height="60" as="geometry" />
        </mxCell>
        <mxCell id="E5LTaA5tbhpfX6t5myje-18" value="" style="endArrow=classic;html=1;rounded=0;fontSize=12;startSize=8;endSize=8;curved=1;entryX=0;entryY=0.5;entryDx=0;entryDy=0;exitX=1;exitY=0.5;exitDx=0;exitDy=0;" edge="1" parent="1" source="E5LTaA5tbhpfX6t5myje-6" target="E5LTaA5tbhpfX6t5myje-17">
          <mxGeometry width="50" height="50" relative="1" as="geometry">
            <mxPoint x="243" y="578" as="sourcePoint" />
            <mxPoint x="293" y="528" as="targetPoint" />
          </mxGeometry>
        </mxCell>
        <mxCell id="E5LTaA5tbhpfX6t5myje-19" value="" style="endArrow=none;html=1;rounded=0;fontSize=12;startSize=8;endSize=8;curved=1;exitX=1;exitY=0;exitDx=0;exitDy=0;" edge="1" parent="1" source="E5LTaA5tbhpfX6t5myje-17">
          <mxGeometry width="50" height="50" relative="1" as="geometry">
            <mxPoint x="571" y="360" as="sourcePoint" />
            <mxPoint x="575" y="207" as="targetPoint" />
          </mxGeometry>
        </mxCell>
        <mxCell id="E5LTaA5tbhpfX6t5myje-20" value="" style="endArrow=classic;html=1;rounded=0;fontSize=12;startSize=8;endSize=8;curved=1;entryX=1;entryY=0.5;entryDx=0;entryDy=0;" edge="1" parent="1" target="E5LTaA5tbhpfX6t5myje-2">
          <mxGeometry width="50" height="50" relative="1" as="geometry">
            <mxPoint x="575" y="207" as="sourcePoint" />
            <mxPoint x="625" y="157" as="targetPoint" />
          </mxGeometry>
        </mxCell>
        <mxCell id="E5LTaA5tbhpfX6t5myje-21" value="Other things I have done" style="rounded=0;whiteSpace=wrap;html=1;" vertex="1" parent="1">
          <mxGeometry x="-301" y="257" width="120" height="60" as="geometry" />
        </mxCell>
        <mxCell id="E5LTaA5tbhpfX6t5myje-22" value="" style="endArrow=classic;html=1;rounded=0;fontSize=12;startSize=8;endSize=8;curved=1;entryX=1;entryY=0.5;entryDx=0;entryDy=0;exitX=0;exitY=0.5;exitDx=0;exitDy=0;" edge="1" parent="1" source="E5LTaA5tbhpfX6t5myje-4" target="E5LTaA5tbhpfX6t5myje-21">
          <mxGeometry width="50" height="50" relative="1" as="geometry">
            <mxPoint x="-139" y="405" as="sourcePoint" />
            <mxPoint x="-89" y="355" as="targetPoint" />
          </mxGeometry>
        </mxCell>
        <mxCell id="E5LTaA5tbhpfX6t5myje-23" value="" style="endArrow=none;html=1;rounded=0;fontSize=12;startSize=8;endSize=8;curved=1;exitX=0.5;exitY=0;exitDx=0;exitDy=0;" edge="1" parent="1" source="E5LTaA5tbhpfX6t5myje-21">
          <mxGeometry width="50" height="50" relative="1" as="geometry">
            <mxPoint x="-241" y="257" as="sourcePoint" />
            <mxPoint x="-241" y="218" as="targetPoint" />
          </mxGeometry>
        </mxCell>
        <mxCell id="E5LTaA5tbhpfX6t5myje-24" value="" style="endArrow=classic;html=1;rounded=0;fontSize=12;startSize=8;endSize=8;curved=1;entryX=0;entryY=0.75;entryDx=0;entryDy=0;" edge="1" parent="1" target="E5LTaA5tbhpfX6t5myje-2">
          <mxGeometry width="50" height="50" relative="1" as="geometry">
            <mxPoint x="-241" y="217" as="sourcePoint" />
            <mxPoint x="-11" y="184" as="targetPoint" />
          </mxGeometry>
        </mxCell>
        <mxCell id="E5LTaA5tbhpfX6t5myje-25" value="Navbar accessible on every webpage" style="text;html=1;align=center;verticalAlign=middle;whiteSpace=wrap;rounded=0;fontSize=16;" vertex="1" parent="1">
          <mxGeometry x="280" y="-21" width="94" height="76" as="geometry" />
        </mxCell>
        <mxCell id="E5LTaA5tbhpfX6t5myje-26" value="" style="endArrow=none;dashed=1;html=1;dashPattern=1 3;strokeWidth=2;rounded=0;fontSize=12;startSize=8;endSize=8;curved=1;entryX=0;entryY=0.5;entryDx=0;entryDy=0;exitX=1;exitY=0.25;exitDx=0;exitDy=0;" edge="1" parent="1" source="E5LTaA5tbhpfX6t5myje-2" target="E5LTaA5tbhpfX6t5myje-25">
          <mxGeometry width="50" height="50" relative="1" as="geometry">
            <mxPoint x="229" y="174" as="sourcePoint" />
            <mxPoint x="279" y="124" as="targetPoint" />
          </mxGeometry>
        </mxCell>
        <mxCell id="E5LTaA5tbhpfX6t5myje-27" value="Will contain a button to the next webpage" style="text;html=1;align=center;verticalAlign=middle;whiteSpace=wrap;rounded=0;fontSize=16;" vertex="1" parent="1">
          <mxGeometry x="-208" y="349" width="96" height="77" as="geometry" />
        </mxCell>
        <mxCell id="E5LTaA5tbhpfX6t5myje-28" value="" style="endArrow=none;dashed=1;html=1;dashPattern=1 3;strokeWidth=2;rounded=0;fontSize=12;startSize=8;endSize=8;curved=1;exitX=0.75;exitY=0;exitDx=0;exitDy=0;entryX=0.5;entryY=1;entryDx=0;entryDy=0;" edge="1" parent="1" source="E5LTaA5tbhpfX6t5myje-27" target="E5LTaA5tbhpfX6t5myje-4">
          <mxGeometry width="50" height="50" relative="1" as="geometry">
            <mxPoint x="-128" y="342" as="sourcePoint" />
            <mxPoint x="-78" y="292" as="targetPoint" />
          </mxGeometry>
        </mxCell>
        <mxCell id="E5LTaA5tbhpfX6t5myje-29" value="" style="endArrow=none;dashed=1;html=1;dashPattern=1 3;strokeWidth=2;rounded=0;fontSize=12;startSize=8;endSize=8;curved=1;entryX=0.5;entryY=1;entryDx=0;entryDy=0;exitX=0.25;exitY=0;exitDx=0;exitDy=0;" edge="1" parent="1" source="E5LTaA5tbhpfX6t5myje-27" target="E5LTaA5tbhpfX6t5myje-21">
          <mxGeometry width="50" height="50" relative="1" as="geometry">
            <mxPoint x="-274" y="401" as="sourcePoint" />
            <mxPoint x="-224" y="351" as="targetPoint" />
          </mxGeometry>
        </mxCell>
        <mxCell id="E5LTaA5tbhpfX6t5myje-30" value="Will contain a button to the next webpage" style="text;html=1;align=center;verticalAlign=middle;whiteSpace=wrap;rounded=0;fontSize=16;" vertex="1" parent="1">
          <mxGeometry x="353" y="478" width="96" height="77" as="geometry" />
        </mxCell>
        <mxCell id="E5LTaA5tbhpfX6t5myje-31" value="" style="endArrow=none;dashed=1;html=1;dashPattern=1 3;strokeWidth=2;rounded=0;fontSize=12;startSize=8;endSize=8;curved=1;entryX=0.5;entryY=1;entryDx=0;entryDy=0;exitX=0.25;exitY=0;exitDx=0;exitDy=0;" edge="1" parent="1" source="E5LTaA5tbhpfX6t5myje-30" target="E5LTaA5tbhpfX6t5myje-6">
          <mxGeometry width="50" height="50" relative="1" as="geometry">
            <mxPoint x="246" y="499" as="sourcePoint" />
            <mxPoint x="296" y="449" as="targetPoint" />
          </mxGeometry>
        </mxCell>
        <mxCell id="E5LTaA5tbhpfX6t5myje-32" value="" style="endArrow=none;dashed=1;html=1;dashPattern=1 3;strokeWidth=2;rounded=0;fontSize=12;startSize=8;endSize=8;curved=1;entryX=0.5;entryY=1;entryDx=0;entryDy=0;exitX=0.75;exitY=0;exitDx=0;exitDy=0;" edge="1" parent="1" source="E5LTaA5tbhpfX6t5myje-30" target="E5LTaA5tbhpfX6t5myje-17">
          <mxGeometry width="50" height="50" relative="1" as="geometry">
            <mxPoint x="465" y="519" as="sourcePoint" />
            <mxPoint x="515" y="469" as="targetPoint" />
          </mxGeometry>
        </mxCell>
        <mxCell id="E5LTaA5tbhpfX6t5myje-33" value="Will contain links to the double arrow webpages" style="text;html=1;align=center;verticalAlign=middle;whiteSpace=wrap;rounded=0;fontSize=16;" vertex="1" parent="1">
          <mxGeometry x="385" y="27" width="121" height="64" as="geometry" />
        </mxCell>
        <mxCell id="E5LTaA5tbhpfX6t5myje-34" value="" style="endArrow=none;dashed=1;html=1;dashPattern=1 3;strokeWidth=2;rounded=0;fontSize=12;startSize=8;endSize=8;curved=1;exitX=1;exitY=0.25;exitDx=0;exitDy=0;entryX=0;entryY=0.5;entryDx=0;entryDy=0;" edge="1" parent="1" source="E5LTaA5tbhpfX6t5myje-2" target="E5LTaA5tbhpfX6t5myje-33">
          <mxGeometry width="50" height="50" relative="1" as="geometry">
            <mxPoint x="252" y="174" as="sourcePoint" />
            <mxPoint x="302" y="124" as="targetPoint" />
          </mxGeometry>
        </mxCell>
        <mxCell id="E5LTaA5tbhpfX6t5myje-35" value="Not a individual webpage" style="text;html=1;align=center;verticalAlign=middle;whiteSpace=wrap;rounded=0;fontSize=16;" vertex="1" parent="1">
          <mxGeometry x="418.5" y="110" width="85" height="57" as="geometry" />
        </mxCell>
        <mxCell id="E5LTaA5tbhpfX6t5myje-37" value="" style="endArrow=none;dashed=1;html=1;dashPattern=1 3;strokeWidth=2;rounded=0;fontSize=12;startSize=8;endSize=8;curved=1;exitX=1;exitY=0.25;exitDx=0;exitDy=0;entryX=0;entryY=0.5;entryDx=0;entryDy=0;" edge="1" parent="1" source="E5LTaA5tbhpfX6t5myje-2" target="E5LTaA5tbhpfX6t5myje-35">
          <mxGeometry width="50" height="50" relative="1" as="geometry">
            <mxPoint x="328" y="183" as="sourcePoint" />
            <mxPoint x="378" y="133" as="targetPoint" />
          </mxGeometry>
        </mxCell>
      </root>
    </mxGraphModel>
  </diagram>
</mxfile>
